<svg width="0" height="0">
<defs>
<clipPath id="clip">
<path fill-rule="evenodd" clip-rule="evenodd" d="M583.866 495.812L300.566 5.12231L308.36 0.622314L758.349 780.026L750.555 784.526L626.564 569.766C622.283 572.737 617.535 574.819 612.32 576.014L649.285 636.633V638H640.887L604.51 577.746H558.27V638H550.359V495.812H583.866ZM588.039 503.039H558.27V570.519H599.969C607.846 570.519 614.389 568.924 619.598 565.734C620.773 565.023 621.881 564.266 622.924 563.461L588.039 503.039Z" fill="black"/>
<path d="M491.023 317H524.305V309.773H486.851L491.023 317Z" fill="black"/>
<path d="M450.879 247.469H514.344V240.144H446.651L450.879 247.469Z" fill="black"/>
<path d="M444.91 237.13V182.039H524.109V174.812H437V223.429L444.91 237.13Z" fill="black"/>
<path d="M548.621 174.812L592.176 238.191L635.828 174.812H645.496L597.059 244.637L647.156 317H637.586L592.176 251.082L546.668 317H537.293L587.391 244.637L538.953 174.812H548.621Z" fill="black"/>
<path d="M716.297 317V182.039H766.883V174.812H657.898V182.039H708.484V317H716.297Z" fill="black"/>
<path fill-rule="evenodd" clip-rule="evenodd" d="M790.711 174.812H836.316C845.691 174.812 853.927 176.407 861.023 179.598C868.12 182.788 873.654 187.443 877.625 193.562C881.661 199.682 883.68 207.202 883.68 216.121C883.68 222.957 882.215 229.142 879.285 234.676C876.355 240.21 872.384 244.799 867.371 248.445C862.972 251.587 858.073 253.777 852.672 255.014L889.637 315.633V317H881.238L844.862 256.746H798.621V317H790.711V174.812ZM840.32 249.519H798.621V182.039H836.316C844.52 182.039 851.551 183.439 857.41 186.238C863.335 188.973 867.859 192.879 870.984 197.957C874.174 202.97 875.77 209.025 875.77 216.121C875.77 221.785 874.435 227.189 871.766 232.332C869.161 237.41 865.223 241.544 859.949 244.734C854.741 247.924 848.198 249.519 840.32 249.519Z" fill="black"/>
<path fill-rule="evenodd" clip-rule="evenodd" d="M966.59 174.812L1020.11 317H1011.61L996.253 275.594H928.558L913.172 317H904.773L958.191 174.812H966.59ZM931.28 268.269H993.536L962.438 184.418L931.28 268.269Z" fill="black"/>
<path fill-rule="evenodd" clip-rule="evenodd" d="M224.578 576.379V557.433C224.578 547.863 223.309 539.204 220.77 531.457C218.23 523.644 214.552 516.939 209.734 511.34C204.982 505.741 199.285 501.444 192.645 498.449C186.004 495.389 178.517 493.859 170.184 493.859C162.046 493.859 154.624 495.389 147.918 498.449C141.277 501.444 135.581 505.741 130.828 511.34C126.076 516.939 122.397 523.644 119.793 531.457C117.254 539.204 115.984 547.863 115.984 557.433V576.379C115.984 585.884 117.254 594.543 119.793 602.355C122.397 610.168 126.076 616.874 130.828 622.473C135.646 628.071 141.408 632.401 148.113 635.461C154.819 638.456 162.241 639.953 170.379 639.953C178.712 639.953 186.199 638.456 192.84 635.461C199.48 632.401 205.177 628.071 209.93 622.473C214.682 616.874 218.296 610.168 220.77 602.355C223.309 594.543 224.578 585.884 224.578 576.379ZM216.766 557.238V576.379C216.766 584.777 215.724 592.427 213.641 599.328C211.622 606.229 208.628 612.154 204.656 617.101C200.685 622.049 195.835 625.891 190.105 628.625C184.376 631.294 177.801 632.629 170.379 632.629C163.152 632.629 156.642 631.294 150.848 628.625C145.118 625.891 140.268 622.049 136.297 617.101C132.326 612.154 129.266 606.229 127.117 599.328C125.034 592.427 123.992 584.777 123.992 576.379V557.238C123.992 548.905 125.034 541.32 127.117 534.484C129.201 527.583 132.228 521.659 136.199 516.711C140.171 511.763 145.021 507.954 150.75 505.285C156.479 502.551 162.957 501.183 170.184 501.183C177.605 501.183 184.181 502.551 189.91 505.285C195.639 507.954 200.49 511.763 204.461 516.711C208.497 521.659 211.557 527.583 213.641 534.484C215.724 541.32 216.766 548.905 216.766 557.238Z" fill="black"/>
<path fill-rule="evenodd" clip-rule="evenodd" d="M8.85547 578.82H46.9414C57.2279 578.82 65.8216 577.16 72.7227 573.84C79.6237 570.519 84.832 565.799 88.3477 559.68C91.8633 553.495 93.6211 546.17 93.6211 537.707C93.6211 529.374 91.8633 522.082 88.3477 515.832C84.832 509.517 79.5911 504.601 72.625 501.086C65.724 497.57 57.1628 495.812 46.9414 495.812H0.945312V638H8.85547V578.82ZM8.85547 571.594V503.039H46.9414C56.056 503.039 63.4779 504.634 69.207 507.824C74.9362 510.949 79.1029 515.148 81.707 520.422C84.3763 525.695 85.7109 531.522 85.7109 537.902C85.7109 544.087 84.3763 549.751 81.707 554.894C79.1029 559.973 74.9362 564.042 69.207 567.101C63.4779 570.096 56.056 571.594 46.9414 571.594H8.85547Z" fill="black"/>
<path d="M291.57 603.723L324.188 495.812H331.902L364.129 603.723L370.2 626.637L376.043 603.332L403.875 495.812H412.176L374.676 638H366.57L328.066 507.34L323.699 522.375L289.129 638H281.023L243.426 495.812H251.824L279.949 603.332L285.549 626.448L291.57 603.723Z" fill="black"/>
<path d="M524.188 638V630.773H444.793V568.469H514.227V561.144H444.793V503.039H523.992V495.812H436.883V638H524.188Z" fill="black"/>
</clipPath>
</defs>
</svg>
